<svg width="15" height="15" viewBox="0 0 15 15" fill="none" xmlns="http://www.w3.org/2000/svg">
<path d="M11.1875 10.8687C11.025 10.3687 10.5562 10 10 10H9.375V8.125C9.375 7.95924 9.30915 7.80027 9.19194 7.68306C9.07473 7.56585 8.91576 7.5 8.75 7.5H5V6.25H6.25C6.41576 6.25 6.57473 6.18415 6.69194 6.06694C6.80915 5.94973 6.875 5.79076 6.875 5.625V4.375H8.125C8.45652 4.375 8.77446 4.2433 9.00888 4.00888C9.2433 3.77446 9.375 3.45652 9.375 3.125V2.86875C10.1228 3.17023 10.7864 3.64842 11.309 4.2624C11.8316 4.87637 12.1977 5.60784 12.3758 6.39419C12.554 7.18055 12.539 7.99836 12.332 8.77763C12.125 9.5569 11.7323 10.2744 11.1875 10.8687ZM6.875 12.4563C4.40625 12.15 2.5 10.05 2.5 7.5C2.5 7.1125 2.55 6.7375 2.63125 6.38125L5.625 9.375V10C5.625 10.3315 5.7567 10.6495 5.99112 10.8839C6.22554 11.1183 6.54348 11.25 6.875 11.25M7.5 1.25C6.67924 1.25 5.86651 1.41166 5.10823 1.72575C4.34994 2.03984 3.66095 2.50022 3.08058 3.08058C1.90848 4.25269 1.25 5.8424 1.25 7.5C1.25 9.1576 1.90848 10.7473 3.08058 11.9194C3.66095 12.4998 4.34994 12.9602 5.10823 13.2742C5.86651 13.5883 6.67924 13.75 7.5 13.75C9.1576 13.75 10.7473 13.0915 11.9194 11.9194C13.0915 10.7473 13.75 9.1576 13.75 7.5C13.75 6.67924 13.5883 5.86651 13.2742 5.10823C12.9602 4.34994 12.4998 3.66095 11.9194 3.08058C11.3391 2.50022 10.6501 2.03984 9.89177 1.72575C9.13349 1.41166 8.32076 1.25 7.5 1.25Z" fill="#858c94"/>
</svg>
