<svg width="20" height="20" viewBox="0 0 20 20" fill="none" xmlns="http://www.w3.org/2000/svg">
<path d="M9.52935 5.33203H10.4688C10.5547 5.33203 10.6251 5.40235 10.6251 5.48828V10.8652C10.6251 10.916 10.6016 10.9629 10.5606 10.9922L7.33209 13.3496C7.26177 13.4004 7.16412 13.3867 7.11334 13.3164L6.55474 12.5547C6.50201 12.4824 6.51763 12.3848 6.58795 12.3359L9.3731 10.3223V5.48828C9.3731 5.40235 9.44342 5.33203 9.52935 5.33203ZM5.23638 6.80078L2.17388 7.54883C2.07623 7.57227 1.98053 7.49805 1.98053 7.39844L1.9649 4.24414C1.9649 4.11328 2.11529 4.03907 2.21685 4.1211L5.29498 6.52539C5.31824 6.54339 5.33595 6.56759 5.34608 6.5952C5.3562 6.62282 5.35832 6.65273 5.3522 6.6815C5.34608 6.71027 5.33196 6.73672 5.31148 6.75782C5.29099 6.77893 5.26496 6.79382 5.23638 6.80078ZM1.96099 12.6816L3.06841 12.3008C3.10703 12.2875 3.14928 12.2899 3.18615 12.3075C3.22301 12.325 3.25156 12.3562 3.26568 12.3945C3.30279 12.4941 3.34185 12.5918 3.38287 12.6895C3.73052 13.5117 4.22857 14.252 4.86529 14.8867C5.49494 15.5183 6.24115 16.0218 7.06255 16.3691C7.91348 16.7289 8.82816 16.9136 9.75201 16.9121C10.6856 16.9121 11.5899 16.7305 12.4415 16.3691C13.2629 16.0218 14.0091 15.5183 14.6387 14.8867C15.2735 14.252 15.7715 13.5117 16.1211 12.6895C16.4789 11.8381 16.6622 10.9235 16.6602 10C16.6602 9.06641 16.4786 8.16016 16.1172 7.3086C15.7696 6.48633 15.2715 5.7461 14.6348 5.11133C14.0052 4.47973 13.259 3.97629 12.4376 3.62891C11.5899 3.26758 10.6836 3.08594 9.75006 3.08594C8.81646 3.08594 7.91216 3.26758 7.0606 3.62891C6.23919 3.97629 5.49299 4.47973 4.86334 5.11133C4.66412 5.3125 4.47662 5.52149 4.30474 5.74219L3.13677 4.82813C4.67388 2.86328 7.06646 1.59961 9.75396 1.60156C14.4336 1.60352 18.1915 5.4043 18.1446 10.0859C18.0977 14.6856 14.3575 18.3984 9.75006 18.3984C6.12701 18.3984 3.04107 16.1016 1.86529 12.8848C1.83599 12.8027 1.87896 12.7109 1.96099 12.6816Z" fill="#BBBFC4"/>
</svg>
